HIERARCHY
ROOT Hips
{
	OFFSET 64.521797 -9.038944 85.472504
	CHANNELS 6 Xposition Yposition Zposition Xrotation Yrotation Zrotation
	JOINT spine
	{
		OFFSET 0.000000 -0.367607 6.392601
		CHANNELS 3 Xrotation Yrotation Zrotation
		JOINT spine1
		{
			OFFSET 0.000000 -0.000001 9.176109
			CHANNELS 3 Xrotation Yrotation Zrotation
			JOINT spine2
			{
				OFFSET 0.000000 -0.000002 8.792381
				CHANNELS 3 Xrotation Yrotation Zrotation
				JOINT Neck
				{
					OFFSET 0.000000 -1.076243 22.573692
					CHANNELS 3 Xrotation Yrotation Zrotation
					JOINT Head
					{
						OFFSET 0.000000 -0.000001 6.820114
						CHANNELS 3 Xrotation Yrotation Zrotation
						End Site
						{
							OFFSET 0.000000 5.444268 16.508499
						}
					}
				}
				JOINT RightShoulder
				{
					OFFSET -3.702209 0.515507 9.495087
					CHANNELS 3 Xrotation Yrotation Zrotation
					JOINT RightArm
					{
						OFFSET 0.000000 -0.000003 12.453697
						CHANNELS 3 Xrotation Yrotation Zrotation
						JOINT RightArmRoll
						{
							OFFSET 0.000000 -0.000001 6.286865
							CHANNELS 3 Xrotation Yrotation Zrotation
							JOINT RightForeArm
							{
								OFFSET 0.000000 -0.000003 18.311401
								CHANNELS 3 Xrotation Yrotation Zrotation
								JOINT RightForeArmRoll
								{
									OFFSET 0.000000 -0.000001 7.054825
									CHANNELS 3 Xrotation Yrotation Zrotation
									JOINT RightHand
									{
										OFFSET 0.000000 -0.000002 14.157501
										CHANNELS 3 Xrotation Yrotation Zrotation
										End Site
										{
											OFFSET 0.000000 0.000000 0.100006
										}
									}
								}
							}
						}
					}
				}
				JOINT LeftShoulder
				{
					OFFSET 3.702209 0.515507 9.495087
					CHANNELS 3 Xrotation Yrotation Zrotation
					JOINT LeftArm
					{
						OFFSET 0.000000 -0.000003 12.453697
						CHANNELS 3 Xrotation Yrotation Zrotation
						JOINT LeftArmRoll
						{
							OFFSET 0.000000 -0.000001 6.286865
							CHANNELS 3 Xrotation Yrotation Zrotation
							JOINT LeftForeArm
							{
								OFFSET 0.000000 -0.000003 18.311401
								CHANNELS 3 Xrotation Yrotation Zrotation
								JOINT LeftForeArmRoll
								{
									OFFSET 0.000000 -0.000001 7.054825
									CHANNELS 3 Xrotation Yrotation Zrotation
									JOINT LeftHand
									{
										OFFSET 0.000000 -0.000002 14.157501
										CHANNELS 3 Xrotation Yrotation Zrotation
										End Site
										{
											OFFSET 0.000000 0.000000 0.100006
										}
									}
								}
							}
						}
					}
				}
			}
		}
	}
	JOINT RightUpLeg
	{
		OFFSET -5.666161 0.871611 -1.039032
		CHANNELS 3 Xrotation Yrotation Zrotation
		JOINT RightUpLegRoll
		{
			OFFSET 0.000000 -0.000003 16.600502
			CHANNELS 3 Xrotation Yrotation Zrotation
			JOINT RightLeg
			{
				OFFSET 0.000000 0.000003 -20.557198
				CHANNELS 3 Xrotation Yrotation Zrotation
				JOINT RightLegRoll
				{
					OFFSET 0.000000 -0.000003 20.624397
					CHANNELS 3 Xrotation Yrotation Zrotation
					JOINT RightFoot
					{
						OFFSET 0.000000 -0.000003 17.166405
						CHANNELS 3 Xrotation Yrotation Zrotation
						JOINT RightToeBase
						{
							OFFSET 0.000000 -0.000003 14.350204
							CHANNELS 3 Xrotation Yrotation Zrotation
							End Site
							{
								OFFSET 0.006081 0.801059 6.949707
							}
						}
					}
				}
			}
		}
	}
	JOINT LeftUpLeg
	{
		OFFSET 5.666161 0.871611 -1.039032
		CHANNELS 3 Xrotation Yrotation Zrotation
		JOINT LeftUpLegRoll
		{
			OFFSET 0.000000 -0.000003 16.600601
			CHANNELS 3 Xrotation Yrotation Zrotation
			JOINT LeftLeg
			{
				OFFSET 0.000000 -0.000004 20.557098
				CHANNELS 3 Xrotation Yrotation Zrotation
				JOINT LeftLegRoll
				{
					OFFSET 0.000000 -0.000003 20.815094
					CHANNELS 3 Xrotation Yrotation Zrotation
					JOINT LeftFoot
					{
						OFFSET 0.000000 -0.000003 16.975693
						CHANNELS 3 Xrotation Yrotation Zrotation
						JOINT LeftToeBase
						{
							OFFSET 0.000000 -0.000003 14.350204
							CHANNELS 3 Xrotation Yrotation Zrotation
							End Site
							{
								OFFSET -0.027260 0.801060 6.949707
							}
						}
					}
				}
			}
		}
	}
}
MOTION
Frames: 8
Frame Time: 0.041667
51.846100 -16.205711 85.987000 -4.352713 2.036295 0.607409 -0.890318 -0.176062 -0.062410 2.229768 -0.334543 -0.125658 3.874857 -0.336111 -0.121540 6.839571 0.490681 0.928815 6.350417 -1.371068 1.063718 -2.387439 -56.442279 -2.511605 -34.932606 -116.411845 -27.086903 0.000000 -0.000003 -0.000004 7.068012 -12.567556 0.239286 -0.000003 0.000002 -3.000001 -5.000209 -7.998701 0.000164 -4.406740 53.250907 4.611583 -41.140777 115.068648 38.870781 0.000000 0.000005 0.000003 5.323500 11.845845 -0.046294 -0.000003 -0.000002 3.000211 -5.000228 7.998702 -0.000164 2.958706 -176.107180 0.758250 179.999991 -0.000005 -1.197997 174.773640 -2.683808 -0.501405 0.000007 -0.000004 0.042649 68.779028 6.947130 2.000878 25.456950 -7.352225 0.006796 1.284921 172.306917 -0.388080 -0.000005 -0.000004 -1.114500 -8.381139 -0.441080 0.698702 -0.000007 0.000003 -0.151619 70.854047 -6.498134 -3.067869 25.456940 7.355478 -0.000005 
51.843903 -16.193415 85.986404 -4.349300 2.036743 0.609800 -0.891350 -0.175680 -0.062568 2.227139 -0.336415 -0.125865 3.872238 -0.337978 -0.121623 6.843902 0.500232 0.930922 6.348838 -1.382661 1.066067 -2.377164 -56.439486 -2.499062 -34.935786 -116.420711 -27.104660 0.000001 -0.000002 -0.000004 7.094166 -12.571533 0.242083 -0.000003 0.000002 -3.000001 -5.000206 -7.998700 0.000164 -4.398615 53.253312 4.601930 -41.144817 115.072445 38.891097 0.000001 0.000003 0.000003 5.358597 11.853849 -0.049794 -0.000003 -0.000002 3.000209 -5.000229 7.998702 -0.000163 2.954433 -176.107166 0.758894 179.999991 -0.000005 -1.197997 174.774637 -2.686805 -0.500620 0.000008 -0.000004 0.042648 68.780299 6.947134 2.000898 25.456950 -7.352227 0.006796 1.303068 172.301972 -0.408076 -0.000005 -0.000004 -1.114150 -8.348963 -0.416718 0.698057 -0.000007 0.000003 -0.147415 70.817724 -6.494492 -3.079472 25.456941 7.355478 -0.000006 
51.851795 -16.201214 85.988998 -4.345734 2.037261 0.612152 -0.892419 -0.175269 -0.062742 2.224419 -0.338319 -0.126093 3.869519 -0.339874 -0.121722 6.848432 0.509788 0.933137 6.347221 -1.394343 1.068536 -2.366636 -56.436678 -2.486221 -34.939915 -116.428716 -27.123494 -0.000001 -0.000002 -0.000003 7.120322 -12.575608 0.244886 -0.000003 0.000002 -3.000000 -5.000210 -7.998701 0.000164 -4.390455 53.255716 4.592218 -41.148662 115.076188 38.911007 -0.000000 0.000003 0.000003 5.393322 11.861460 -0.053230 0.000001 -0.000003 3.000209 -5.000229 7.998701 -0.000163 2.950024 -176.107152 0.759488 179.999991 -0.000005 -1.197997 174.775675 -2.689789 -0.500844 0.000008 -0.000004 0.042649 68.781658 6.947110 2.001008 25.456950 -7.352226 0.006795 1.325809 172.297041 -0.431100 -0.000004 -0.000004 -1.113840 -8.309672 -0.388989 0.697101 -0.000006 0.000003 -0.142515 70.775404 -6.490617 -3.092084 25.456945 7.355479 -0.000006 
51.854507 -16.205318 85.969299 -4.342051 2.037819 0.614475 -0.893516 -0.174838 -0.062926 2.221630 -0.340245 -0.126338 3.866730 -0.341794 -0.121830 6.853102 0.519347 0.935425 6.345577 -1.406106 1.071093 -2.355923 -56.433779 -2.473160 -34.942722 -116.437472 -27.140858 0.000000 -0.000001 -0.000004 7.146462 -12.579579 0.247677 -0.000004 0.000002 -3.000001 -5.000207 -7.998701 0.000164 -4.382261 53.258113 4.582458 -41.150916 115.080628 38.929008 0.000000 0.000003 0.000003 5.427794 11.869066 -0.056663 -0.000002 -0.000002 3.000210 -5.000227 7.998702 -0.000163 2.945525 -176.106141 0.760098 179.999991 -0.000005 -1.197997 174.776741 -2.691794 -0.500976 0.000008 -0.000004 0.042649 68.783038 6.947122 2.001126 25.456950 -7.352225 0.006796 1.351770 172.291112 -0.456267 -0.000005 -0.000005 -1.113550 -8.265413 -0.358904 0.695904 -0.000007 0.000004 -0.137128 70.728993 -6.486494 -3.105390 25.456945 7.355477 -0.000005 
51.854305 -16.159313 85.981903 -4.338323 2.038398 0.616782 -0.894631 -0.174395 -0.063116 2.218799 -0.342184 -0.126591 3.863899 -0.343726 -0.121945 6.857852 0.528909 0.937751 6.343920 -1.417898 1.073699 -2.345146 -56.430985 -2.460011 -34.945304 -116.446188 -27.158024 0.000001 -0.000001 -0.000004 7.172589 -12.583648 0.250482 -0.000003 0.000002 -3.000001 -5.000208 -7.998700 0.000164 -4.374040 53.260422 4.572671 -41.154758 115.084371 38.948635 0.000000 0.000004 0.000003 5.462110 11.876478 -0.060076 -0.000003 -0.000002 3.000210 -5.000229 7.998702 -0.000164 2.940965 -176.106128 0.760635 179.999991 -0.000005 -1.197997 174.777820 -2.694791 -0.501198 0.000008 -0.000004 0.042649 68.784417 6.947132 2.001240 25.456953 -7.352223 0.006795 1.379557 172.286194 -0.482626 -0.000005 -0.000005 -1.113270 -8.218314 -0.327476 0.694542 -0.000007 0.000003 -0.131463 70.680136 -6.482269 -3.119015 25.456945 7.355479 -0.000006 
51.842995 -16.157213 85.982101 -4.334560 2.038986 0.619085 -0.895749 -0.173949 -0.063307 2.215961 -0.344126 -0.126847 3.861061 -0.345662 -0.122061 6.862625 0.538472 0.940095 6.342264 -1.429699 1.076315 -2.334309 -56.428089 -2.446803 -34.947711 -116.454835 -27.175026 0.000000 -0.000001 -0.000004 7.198725 -12.587613 0.253281 -0.000003 0.000002 -3.000000 -5.000208 -7.998700 0.000164 -4.365818 53.262730 4.562862 -41.158426 115.088045 38.968067 0.000002 0.000002 0.000002 5.496383 11.883878 -0.063479 -0.000004 -0.000002 3.000211 -5.000230 7.998701 -0.000163 2.936393 -176.106101 0.761169 179.999991 -0.000005 -1.197997 174.778899 -2.697775 -0.501420 0.000008 -0.000004 0.042648 68.785893 6.947114 2.001344 25.456950 -7.352225 0.006797 1.407811 172.280307 -0.509317 -0.000005 -0.000005 -1.112990 -8.170499 -0.295712 0.693098 -0.000007 0.000003 -0.125728 70.630768 -6.478012 -3.132763 25.456945 7.355479 -0.000005 
51.846306 -16.187016 85.982506 -4.330836 2.039554 0.621395 -0.896854 -0.173509 -0.063496 2.213151 -0.346063 -0.127099 3.858241 -0.347590 -0.122175 6.867355 0.548035 0.942409 6.340613 -1.441482 1.078905 -2.323553 -56.425289 -2.433683 -34.950314 -116.463536 -27.192187 0.000001 -0.000000 -0.000003 7.224854 -12.591677 0.256094 -0.000005 0.000002 -3.000001 -5.000209 -7.998700 0.000164 -4.357610 53.265022 4.553088 -41.160673 115.092471 38.986006 -0.000001 0.000003 0.000003 5.530745 11.891277 -0.066909 -0.000002 -0.000003 3.000210 -5.000228 7.998701 -0.000164 2.931854 -176.106101 0.761711 179.999991 -0.000005 -1.197997 174.779978 -2.699780 -0.500554 0.000008 -0.000004 0.042649 68.787259 6.947126 2.001462 25.456950 -7.352225 0.006795 1.435151 172.274405 -0.535409 -0.000005 -0.000004 -1.112710 -8.124118 -0.264627 0.691662 -0.000007 0.000003 -0.120133 70.582574 -6.473764 -3.146340 25.456943 7.355479 -0.000005 
51.859108 -16.180311 85.962196 -4.327198 2.040103 0.623727 -0.897947 -0.173084 -0.063677 2.210370 -0.347983 -0.127340 3.855473 -0.349503 -0.122281 6.871987 0.557594 0.944671 6.338989 -1.453224 1.081436 -2.312901 -56.422390 -2.420692 -34.953100 -116.472306 -27.209548 -0.000001 -0.000002 -0.000004 7.250999 -12.595635 0.258904 -0.000004 0.000002 -3.000001 -5.000208 -7.998700 0.000164 -4.349414 53.267430 4.543333 -41.164519 115.096214 39.005769 0.000001 0.000004 0.000003 5.565296 11.898866 -0.070386 -0.000002 -0.000002 3.000210 -5.000230 7.998702 -0.000164 2.927374 -176.106087 0.762279 179.999991 -0.000005 -1.197997 174.781044 -2.702763 -0.500776 0.000008 -0.000004 0.042649 68.788631 6.947138 2.001575 25.456950 -7.352226 0.006796 1.460188 172.268490 -0.559996 -0.000005 -0.000005 -1.112420 -8.081288 -0.235225 0.690337 -0.000006 0.000003 -0.114885 70.537303 -6.469644 -3.159367 25.456943 7.355477 -0.000006 
